<svg width="24" height="24" viewBox="0 0 24 24" fill="none" xmlns="http://www.w3.org/2000/svg">
<g id="Warning icon">
<ellipse id="Ellipse 760" cx="2.27454" cy="3.26155" rx="2.27454" ry="3.26155" transform="matrix(0.744395 -0.66774 0.654747 0.755848 16.3428 5.37976)" fill="#EC534B"/>
<ellipse id="Ellipse 761" cx="2.2677" cy="3.27129" rx="2.2677" ry="3.27129" transform="matrix(0.852915 -0.522049 0.508834 0.860865 9.14551 2.36792)" fill="#EC534B"/>
<ellipse id="Ellipse 763" cx="2.2677" cy="3.27129" rx="2.2677" ry="3.27129" transform="matrix(0.852915 -0.522049 0.508834 0.860865 0 10.3677)" fill="#EC534B"/>
<ellipse id="Ellipse 764" cx="2.2677" cy="3.27129" rx="2.2677" ry="3.27129" transform="matrix(0.852915 -0.522049 0.508834 0.860865 1.94775 18.3677)" fill="#EC534B"/>
<ellipse id="Ellipse 762" cx="2.2677" cy="3.52526" rx="2.2677" ry="3.52526" transform="matrix(0.852915 -0.522049 0.508834 0.860865 2.43066 3.50867)" fill="#EC534B"/>
<path id="Subtract" fill-rule="evenodd" clip-rule="evenodd" d="M15.4003 23.7949C19.6308 23.7949 23.0603 20.305 23.0603 15.9999C23.0603 11.6949 19.6308 8.20496 15.4003 8.20496C11.1698 8.20496 7.74023 11.6949 7.74023 15.9999C7.74023 20.305 11.1698 23.7949 15.4003 23.7949ZM11.8235 14.3887L14.8849 15.1407L16.6794 11.4883L19.0018 12.4551L17.6295 15.7852L20.2686 17.2892L19.0018 19.2228L15.7293 18.0411L14.8849 20.5119H12.6679L13.9347 17.2892L11.0845 16.6446L11.8235 14.3887Z" fill="#EC534B"/>
</g>
</svg>
